<svg width="30" height="30" viewBox="0 0 30 30" fill="none" xmlns="http://www.w3.org/2000/svg">
<rect width="30" height="30" rx="5" fill="white"/>
<path d="M12.3333 7H7.66667C7.29848 7 7 7.29848 7 7.66667V12.3333C7 12.7015 7.29848 13 7.66667 13H12.3333C12.7015 13 13 12.7015 13 12.3333V7.66667C13 7.29848 12.7015 7 12.3333 7Z" stroke="#23342A" stroke-width="1.5" stroke-linecap="round" stroke-linejoin="round"/>
<path d="M22.3333 7H17.6667C17.2985 7 17 7.29848 17 7.66667V12.3333C17 12.7015 17.2985 13 17.6667 13H22.3333C22.7015 13 23 12.7015 23 12.3333V7.66667C23 7.29848 22.7015 7 22.3333 7Z" stroke="#23342A" stroke-width="1.5" stroke-linecap="round" stroke-linejoin="round"/>
<path d="M12.3333 17H7.66667C7.29848 17 7 17.2985 7 17.6667V22.3333C7 22.7015 7.29848 23 7.66667 23H12.3333C12.7015 23 13 22.7015 13 22.3333V17.6667C13 17.2985 12.7015 17 12.3333 17Z" stroke="#23342A" stroke-width="1.5" stroke-linecap="round" stroke-linejoin="round"/>
<path d="M22.3333 17H17.6667C17.2985 17 17 17.2985 17 17.6667V22.3333C17 22.7015 17.2985 23 17.6667 23H22.3333C22.7015 23 23 22.7015 23 22.3333V17.6667C23 17.2985 22.7015 17 22.3333 17Z" stroke="#23342A" stroke-width="1.5" stroke-linecap="round" stroke-linejoin="round"/>
</svg>
