<svg width="7" height="27" viewBox="0 0 7 27" fill="none" xmlns="http://www.w3.org/2000/svg">
<g opacity="0.3">
<path d="M3.72297 19.2463H3.62235C2.0124 19.8605 0.100586 21.0888 0.100586 22.829C0.100586 24.5693 1.50929 26.0024 3.21986 26.0024C4.93043 26.0024 6.54038 24.9787 6.74162 22.4196V21.3959C6.84224 19.6557 5.33292 18.7345 3.72297 19.2463Z" fill="#27392F"/>
<path d="M1.00622 10.953C1.60995 11.6696 2.3143 12.079 3.32052 12.1814C3.42114 12.1814 3.52176 12.1814 3.62238 12.1814H3.723C4.6286 12.1814 5.33295 11.8743 5.93668 11.2601C6.54041 10.7483 6.84228 10.0317 6.84228 9.21283C6.84228 8.70101 6.74166 8.18918 6.54041 7.77972C6.23855 6.85844 5.5342 6.03952 4.42736 5.63006C4.42736 3.7875 5.03109 2.35439 6.33917 1.22838C6.33917 1.22838 6.33917 1.22838 6.43979 1.12601C6.54041 1.02365 6.54041 1.02365 6.54041 1.02365L6.64104 0.921283C6.74166 0.818918 6.84228 0.716554 6.84228 0.511824C6.84228 0.307094 6.64104 0.20473 6.43979 0.102365C6.33917 0 6.33917 0 6.23855 0C6.13793 0 6.13793 0 6.0373 0C4.42736 0.409459 3.01865 1.22838 1.91181 2.55912C0.704352 3.88986 0.100622 5.42533 0 7.16554C0 7.57499 0 7.88209 0.100622 8.29155C0.201244 9.3152 0.503109 10.2365 1.00622 10.953Z" fill="#27392F"/>
</g>
</svg>
