<svg width="44" height="11" viewBox="0 0 44 11" fill="none" xmlns="http://www.w3.org/2000/svg">
<path d="M3.173 0.717999C4.36033 0.717999 5.23567 0.977999 5.799 1.498C6.371 2.00933 6.657 2.72433 6.657 3.643C6.657 4.189 6.54433 4.70467 6.319 5.19C6.09367 5.66667 5.721 6.05667 5.201 6.36C4.681 6.65467 3.97467 6.802 3.082 6.802H2.302V10H0.0920001V0.717999H3.173ZM3.095 2.525H2.302V4.995H2.887C3.329 4.995 3.693 4.89533 3.979 4.696C4.27367 4.49667 4.421 4.16733 4.421 3.708C4.421 3.32667 4.31267 3.03633 4.096 2.837C3.87933 2.629 3.54567 2.525 3.095 2.525ZM13.964 10L13.392 8.011H10.181L9.60902 10H7.19102L10.35 0.679H13.184L16.382 10H13.964ZM12.352 4.306C12.3087 4.15 12.248 3.942 12.17 3.682C12.1007 3.41333 12.027 3.14033 11.949 2.863C11.8797 2.58567 11.8233 2.35167 11.78 2.161C11.7453 2.35167 11.689 2.59 11.611 2.876C11.5417 3.15333 11.4723 3.42633 11.403 3.695C11.3337 3.955 11.2773 4.15867 11.234 4.306L10.688 6.165H12.898L12.352 4.306ZM20.431 4.371L22.212 0.717999H24.604L21.536 6.386V10H19.326V6.451L16.258 0.717999H18.663L20.431 4.371ZM30.1169 2.421C29.4409 2.421 28.9166 2.68533 28.5439 3.214C28.1713 3.74267 27.9849 4.46633 27.9849 5.385C27.9849 6.32967 28.1626 7.05333 28.5179 7.556C28.8733 8.05 29.4279 8.297 30.1819 8.297C30.5719 8.297 30.9576 8.24933 31.3389 8.154C31.7203 8.05 32.1233 7.92 32.5479 7.764V9.636C32.1319 9.80933 31.7159 9.935 31.2999 10.013C30.8926 10.091 30.4463 10.13 29.9609 10.13C28.9729 10.13 28.1669 9.93067 27.5429 9.532C26.9189 9.13333 26.4553 8.57867 26.1519 7.868C25.8573 7.15733 25.7099 6.32533 25.7099 5.372C25.7099 4.436 25.8789 3.60833 26.2169 2.889C26.5549 2.16967 27.0533 1.60633 27.7119 1.199C28.3706 0.791666 29.1766 0.588 30.1299 0.588C30.5806 0.588 31.0443 0.644333 31.5209 0.757C32.0063 0.860999 32.4699 1.02133 32.9119 1.238L32.2229 3.006C31.8763 2.85 31.5296 2.71567 31.1829 2.603C30.8363 2.48167 30.4809 2.421 30.1169 2.421ZM43.3775 5.346C43.3775 6.308 43.2215 7.14867 42.9095 7.868C42.5975 8.57867 42.1122 9.13333 41.4535 9.532C40.7949 9.93067 39.9499 10.13 38.9185 10.13C37.8959 10.13 37.0552 9.93067 36.3965 9.532C35.7379 9.13333 35.2482 8.57433 34.9275 7.855C34.6155 7.13567 34.4595 6.295 34.4595 5.333C34.4595 4.371 34.6155 3.53467 34.9275 2.824C35.2482 2.11333 35.7379 1.563 36.3965 1.173C37.0552 0.774333 37.9002 0.575 38.9315 0.575C39.9629 0.575 40.8035 0.774333 41.4535 1.173C42.1122 1.563 42.5975 2.11767 42.9095 2.837C43.2215 3.54767 43.3775 4.384 43.3775 5.346ZM36.7865 5.346C36.7865 6.256 36.9512 6.971 37.2805 7.491C37.6185 8.011 38.1645 8.271 38.9185 8.271C39.6899 8.271 40.2359 8.011 40.5565 7.491C40.8859 6.971 41.0505 6.256 41.0505 5.346C41.0505 4.436 40.8859 3.721 40.5565 3.201C40.2359 2.67233 39.6942 2.408 38.9315 2.408C38.1689 2.408 37.6185 2.67233 37.2805 3.201C36.9512 3.721 36.7865 4.436 36.7865 5.346Z" fill="#27392F"/>
</svg>
